<?xml version="1.0" encoding="UTF-8"?>
<svg width="24" height="24" viewBox="0 0 24 24" fill="none" xmlns="http://www.w3.org/2000/svg">
    <path d="M23.954 4.569c-.885.389-1.83.654-2.825.775 1.014-.611 1.794-1.574 2.163-2.723-.951.555-2.005.959-3.127 1.184-.896-.959-2.173-1.559-3.591-1.559-2.717 0-4.92 2.203-4.92 4.917 0 .39.045.765.127 1.124-4.09-.193-7.715-2.157-10.141-5.126-.427.722-.666 1.561-.666 2.457 0 1.819.957 3.431 2.41 4.385-.888-.028-1.721-.271-2.449-.667v.06c0 2.54 1.806 4.664 4.2 5.139-.454.126-.928.192-1.414.192-.346 0-.682-.034-1.008-.096.665 2.084 2.6 3.6 4.892 3.643-1.791 1.402-4.054 2.236-6.51 2.236-.422 0-.837-.024-1.246-.073 2.3 1.476 5.036 2.337 7.97 2.337 9.564 0 14.792-7.918 14.792-14.792l-.014-.679c1.022-.736 1.899-1.652 2.593-2.695z" fill="#FFFFFF"/>
</svg>
